<?xml version="1.0" encoding="utf-8"?>
<!-- Generator: Adobe Illustrator 19.0.0, SVG Export Plug-In . SVG Version: 6.00 Build 0)  -->
<svg version="1.1" id="Capa_1" xmlns="http://www.w3.org/2000/svg" xmlns:xlink="http://www.w3.org/1999/xlink" x="0px" y="0px"
	 viewBox="-24 43 351 115" style="enable-background:new -24 43 351 115;" xml:space="preserve">
<style type="text/css">
	.st0{display:none;}
	.st1{display:inline;fill:#2A0024;}
	.st2{fill:#FFFFFF;}
	.st3{opacity:0.8;fill:#FFFFFF;enable-background:new    ;}
	.st4{opacity:0.5;fill:#FFFFFF;enable-background:new    ;}
</style>
<g id="Capa_2" class="st0">
	<rect id="XMLID_8_" x="-27" y="43" class="st1" width="403" height="200"/>
</g>
<g id="Capa_1_1_">
	<path id="XMLID_92_" class="st2" d="M16.4,108c-0.9-0.3-1.5-1.3-1.2-2.2c0.3-1,1.3-1.5,2.2-1.2s1.5,1.3,1.2,2.2
		C18.3,107.7,17.3,108.3,16.4,108z"/>
	<path id="XMLID_91_" class="st2" d="M11.9,106.7c-0.9-0.3-1.5-1.3-1.2-2.2c0.3-1,1.3-1.5,2.2-1.3c0.9,0.3,1.5,1.3,1.2,2.2
		C13.8,106.4,12.8,107,11.9,106.7z"/>
	<path id="XMLID_90_" class="st2" d="M21.2,108c-0.9-0.3-1.5-1.3-1.2-2.2c0.3-1,1.3-1.5,2.2-1.2s1.5,1.3,1.2,2.2
		C23.1,107.7,22.1,108.3,21.2,108z"/>
	<path id="XMLID_89_" class="st2" d="M25.7,106.6c-0.8-0.2-1.3-1-1.1-1.8c0.2-0.8,1-1.2,1.8-1c0.8,0.2,1.3,1,1.1,1.8
		C27.3,106.4,26.5,106.8,25.7,106.6z"/>
	<path id="XMLID_88_" class="st2" d="M8.5,104.1c-0.8-0.2-1.3-1-1.1-1.8c0.2-0.8,1-1.2,1.8-1c0.8,0.2,1.3,1,1.1,1.8
		C10.1,103.9,9.3,104.3,8.5,104.1z"/>
	<path id="XMLID_87_" class="st2" d="M6,101.5c-0.7-0.2-1-0.8-0.9-1.5c0.2-0.6,0.9-1,1.5-0.8c0.7,0.2,1,0.8,0.9,1.5
		C7.3,101.3,6.6,101.7,6,101.5z"/>
	<path id="XMLID_86_" class="st2" d="M28.7,104.7c-0.7-0.2-1-0.8-0.9-1.4c0.2-0.6,0.8-1,1.5-0.8s1,0.8,0.9,1.4
		C30,104.5,29.4,104.9,28.7,104.7z"/>
	<path id="XMLID_85_" class="st2" d="M4.4,98.8c-0.5-0.1-0.8-0.7-0.6-1.2c0.1-0.5,0.7-0.8,1.2-0.7c0.5,0.1,0.8,0.7,0.6,1.2
		C5.4,98.7,4.9,99,4.4,98.8z"/>
	
		<ellipse id="XMLID_84_" transform="matrix(0.9618 0.2739 -0.2739 0.9618 28.9187 -4.8481)" class="st2" cx="31.8" cy="101.1" rx="0.9" ry="1"/>
	<path id="XMLID_83_" class="st2" d="M3.7,96.4c-0.4-0.1-0.7-0.6-0.6-1s0.6-0.7,1-0.5c0.4,0.1,0.7,0.6,0.6,1
		C4.6,96.2,4.1,96.5,3.7,96.4z"/>
	<path id="XMLID_82_" class="st2" d="M3.1,94.1c-0.4-0.1-0.6-0.5-0.5-0.8c0.1-0.3,0.5-0.5,0.8-0.4C3.8,93,4,93.4,3.9,93.7
		C3.9,94,3.5,94.2,3.1,94.1z"/>
	<path id="XMLID_81_" class="st2" d="M32.7,99.1c-0.4-0.1-0.6-0.5-0.5-0.8c0.1-0.3,0.5-0.5,0.8-0.4c0.4,0.1,0.6,0.5,0.5,0.8
		C33.5,99,33.1,99.2,32.7,99.1z"/>
	<path id="XMLID_80_" class="st3" d="M-7.8,99.3c0,1.4-1.1,2.5-2.4,2.5s-2.4-1.1-2.4-2.5c0-1.4,1.1-2.5,2.4-2.5
		C-8.8,96.8-7.8,97.9-7.8,99.3z"/>
	<path id="XMLID_79_" class="st3" d="M-8.8,92c0,1.4-1.1,2.5-2.4,2.5s-2.4-1.1-2.4-2.5s1.1-2.5,2.4-2.5C-9.9,89.5-8.8,90.6-8.8,92z"
		/>
	<path id="XMLID_78_" class="st3" d="M-4.6,105.5c0,1.4-1.1,2.5-2.4,2.5s-2.4-1.1-2.4-2.5S-8.3,103-7,103S-4.6,104.1-4.6,105.5z"/>
	<path id="XMLID_77_" class="st3" d="M-1.2,110.3c0,1.2-0.9,2.1-2.1,2.1s-2.1-0.9-2.1-2.1s0.9-2.1,2.1-2.1
		C-2.1,108.2-1.2,109.2-1.2,110.3z"/>
	<path id="XMLID_76_" class="st3" d="M-7.2,85.4c0,1.2-0.9,2.1-2.1,2.1c-1.1,0-2.1-0.9-2.1-2.1c0-1.2,0.9-2.1,2.1-2.1
		S-7.2,84.2-7.2,85.4z"/>
	<path id="XMLID_75_" class="st3" d="M2.6,114.3c0,1.1-0.8,1.9-1.9,1.9c-1,0-1.9-0.9-1.9-1.9c0-1.1,0.8-1.9,1.9-1.9
		C1.7,112.4,2.6,113.2,2.6,114.3z"/>
	<path id="XMLID_74_" class="st3" d="M-5.5,80c0,1.1-0.8,1.9-1.9,1.9c-1,0-1.9-0.9-1.9-1.9c0-1.1,0.8-1.9,1.9-1.9
		C-6.4,78.1-5.5,78.9-5.5,80z"/>
	<path id="XMLID_73_" class="st3" d="M7.8,116.4c0,1-0.8,1.7-1.7,1.7c-0.9,0-1.7-0.8-1.7-1.7c0-1,0.8-1.7,1.7-1.7
		C7.1,114.7,7.8,115.5,7.8,116.4z"/>
	<path id="XMLID_72_" class="st3" d="M-2.8,76.3c0,1-0.8,1.7-1.7,1.7c-0.9,0-1.7-0.8-1.7-1.7c0-1,0.8-1.7,1.7-1.7
		C-3.5,74.6-2.8,75.3-2.8,76.3z"/>
	<path id="XMLID_71_" class="st3" d="M12.6,117.6c0,0.7-0.5,1.3-1.2,1.3s-1.2-0.6-1.2-1.3c0-0.7,0.5-1.3,1.2-1.3
		C12.1,116.4,12.6,116.9,12.6,117.6z"/>
	<path id="XMLID_70_" class="st3" d="M-0.9,72.5c0,0.7-0.5,1.3-1.2,1.3s-1.2-0.6-1.2-1.3s0.5-1.3,1.2-1.3S-0.9,71.8-0.9,72.5z"/>
	<path id="XMLID_69_" class="st3" d="M16.6,117.8c0,0.6-0.5,1.1-1,1.1c-0.6,0-1-0.5-1-1.1s0.5-1.1,1-1.1
		C16.2,116.7,16.6,117.2,16.6,117.8z"/>
	<path id="XMLID_68_" class="st3" d="M1.5,70.5c0,0.5-0.4,0.9-0.9,0.9s-0.9-0.4-0.9-0.9s0.4-0.9,0.9-0.9C1.1,69.5,1.5,69.9,1.5,70.5
		z"/>
	<path id="XMLID_67_" class="st3" d="M4,68.8c0,0.5-0.4,0.9-0.9,0.9s-0.9-0.4-0.9-0.9s0.4-0.9,0.9-0.9C3.6,67.8,4,68.3,4,68.8z"/>
	<path id="XMLID_66_" class="st4" d="M5.6,105.4c0.6,1,0.3,2.2-0.6,2.8c-1,0.6-2.2,0.3-2.8-0.7c-0.6-1-0.3-2.2,0.6-2.8
		C3.8,104.1,5,104.4,5.6,105.4z"/>
	<path id="XMLID_65_" class="st4" d="M1.8,100.7c0.6,1,0.3,2.2-0.7,2.8c-0.9,0.6-2.2,0.3-2.8-0.7c-0.6-1-0.3-2.2,0.6-2.8
		C-0.1,99.4,1.2,99.7,1.8,100.7z"/>
	<path id="XMLID_64_" class="st4" d="M10.5,108.4c0.6,1,0.3,2.2-0.6,2.8c-1,0.6-2.2,0.3-2.8-0.7c-0.6-1-0.3-2.2,0.7-2.8
		C8.7,107.1,9.9,107.4,10.5,108.4z"/>
	<path id="XMLID_63_" class="st4" d="M15,110.3c0.5,0.8,0.3,1.9-0.6,2.4c-0.8,0.5-1.9,0.2-2.4-0.6c-0.5-0.8-0.3-1.9,0.6-2.4
		C13.5,109.2,14.5,109.5,15,110.3z"/>
	<path id="XMLID_62_" class="st4" d="M-0.2,96.5c0.5,0.8,0.3,1.9-0.6,2.4c-0.8,0.5-1.9,0.2-2.4-0.6s-0.3-1.9,0.6-2.4
		C-1.8,95.5-0.7,95.7-0.2,96.5z"/>
	<path id="XMLID_61_" class="st4" d="M19.4,111.5c0.5,0.7,0.2,1.7-0.5,2.2s-1.7,0.2-2.2-0.5s-0.2-1.7,0.5-2.2
		C18,110.5,19,110.7,19.4,111.5z"/>
	<path id="XMLID_60_" class="st4" d="M-1.4,92c0.5,0.7,0.2,1.7-0.5,2.2c-0.7,0.4-1.7,0.2-2.2-0.5C-4.6,93-4.3,92-3.6,91.5
		C-2.8,91-1.8,91.3-1.4,92z"/>
	<path id="XMLID_59_" class="st4" d="M24.8,111c0.4,0.7,0.2,1.5-0.5,2c-0.7,0.4-1.5,0.2-1.9-0.5s-0.2-1.6,0.5-2
		C23.5,110.1,24.4,110.3,24.8,111z"/>
	<path id="XMLID_58_" class="st4" d="M-1.3,87.8c0.4,0.7,0.2,1.5-0.5,2c-0.7,0.4-1.5,0.2-2-0.5c-0.4-0.7-0.2-1.5,0.5-2
		C-2.6,86.9-1.7,87.1-1.3,87.8z"/>
	<path id="XMLID_57_" class="st4" d="M28,109.6c0.3,0.5,0.2,1.1-0.3,1.4s-1.1,0.1-1.4-0.4c-0.3-0.5-0.2-1.1,0.3-1.4
		C27.1,109,27.7,109.1,28,109.6z"/>
	<path id="XMLID_56_" class="st4" d="M-0.2,84.6C0.1,85.1,0,85.7-0.5,86s-1.1,0.1-1.4-0.4s-0.2-1.1,0.3-1.4
		C-1.2,84-0.5,84.1-0.2,84.6z"/>
	<path id="XMLID_55_" class="st4" d="M0.9,82.6c0.2,0.4,0.1,0.8-0.2,1c-0.3,0.2-0.8,0.1-1-0.3c-0.2-0.4-0.1-0.8,0.2-1
		C0.2,82.1,0.7,82.2,0.9,82.6z"/>
	<path id="XMLID_54_" class="st4" d="M2.6,80.5c0.2,0.4,0.1,0.8-0.2,1c-0.3,0.2-0.8,0.1-1-0.3c-0.2-0.4-0.1-0.8,0.2-1
		C2,80,2.4,80.1,2.6,80.5z"/>
	<path id="XMLID_53_" class="st2" d="M65.5,97.9c-0.2,2.4-2.4,4.1-4.8,3.9s-4.2-2.4-4-4.8c0.2-2.4,2.4-4.1,4.8-3.9
		S65.7,95.5,65.5,97.9z"/>
	<path id="XMLID_52_" class="st2" d="M64.3,109.2c-0.2,2.4-2.4,4.1-4.8,3.9c-2.4-0.3-4.2-2.4-4-4.8s2.4-4.1,4.8-3.9
		C62.8,104.7,64.6,106.8,64.3,109.2z"/>
	<path id="XMLID_51_" class="st2" d="M63.6,85.2c-0.2,2.4-2.4,4.1-4.8,3.9c-2.4-0.2-4.2-2.4-4-4.8c0.2-2.4,2.4-4.1,4.8-3.9
		C62.1,80.6,63.9,82.7,63.6,85.2z"/>
	<path id="XMLID_50_" class="st2" d="M57.6,72.8c-0.2,2.3-2.2,3.9-4.3,3.7c-2.2-0.2-3.7-2.2-3.5-4.5s2.2-3.9,4.3-3.7
		C56.3,68.5,57.8,70.5,57.6,72.8z"/>
	<path id="XMLID_49_" class="st2" d="M61.4,118.5c-0.2,2-1.9,3.5-3.9,3.3c-1.9-0.2-3.3-2-3.1-4c0.2-2,1.9-3.5,3.9-3.3
		C60.2,114.7,61.6,116.5,61.4,118.5z"/>
	<path id="XMLID_48_" class="st2" d="M58.6,125.7c-0.2,1.7-1.6,2.9-3.1,2.7c-1.6-0.2-2.7-1.6-2.5-3.3c0.2-1.7,1.6-2.9,3.1-2.7
		C57.7,122.5,58.8,124,58.6,125.7z"/>
	<path id="XMLID_47_" class="st2" d="M41.3,57.5c-0.2,1.7-1.6,2.9-3.1,2.7c-1.6-0.2-2.7-1.6-2.5-3.3c0.2-1.7,1.6-2.9,3.1-2.7
		C40.4,54.4,41.5,55.9,41.3,57.5z"/>
	<path id="XMLID_46_" class="st2" d="M55.2,131.3c-0.1,1.3-1.3,2.2-2.5,2c-1.3-0.1-2.2-1.3-2.1-2.5c0.1-1.3,1.3-2.2,2.6-2
		C54.4,129,55.4,130.1,55.2,131.3z"/>
	<path id="XMLID_45_" class="st2" d="M27.1,53.3c-0.1,1.3-1.3,2.2-2.5,2c-1.3-0.1-2.2-1.3-2.1-2.5c0.1-1.3,1.3-2.2,2.5-2
		C26.3,50.9,27.3,52,27.1,53.3z"/>
	<path id="XMLID_44_" class="st2" d="M52.5,136.6c-0.1,1.1-1.1,1.9-2.1,1.8c-1.1-0.1-1.9-1.1-1.7-2.2c0.1-1.1,1.1-1.9,2.1-1.8
		C51.8,134.5,52.6,135.5,52.5,136.6z"/>
	<path id="XMLID_43_" class="st2" d="M49.2,140.8c-0.1,0.9-0.9,1.6-1.8,1.5s-1.5-0.9-1.4-1.9c0.1-0.9,0.9-1.6,1.8-1.5
		C48.7,139,49.3,139.8,49.2,140.8z"/>
	<path id="XMLID_42_" class="st2" d="M2.4,56.4c-0.1,0.9-0.9,1.6-1.8,1.5C-0.3,57.8-0.9,57-0.8,56c0.1-0.9,0.9-1.6,1.8-1.5
		C1.8,54.6,2.5,55.5,2.4,56.4z"/>
	<ellipse id="XMLID_41_" class="st4" cx="50.3" cy="101.6" rx="2.4" ry="2.5"/>
	<path id="XMLID_40_" class="st4" d="M51.3,107.9c0,1.1-0.8,1.9-1.9,1.9c-1,0-1.9-0.9-1.9-1.9c0-1.1,0.8-1.9,1.9-1.9
		C50.4,106,51.3,106.9,51.3,107.9z"/>
	<path id="XMLID_39_" class="st2" d="M14.4,53.3c-0.3,1.2-1.6,1.9-2.8,1.6c-1.2-0.3-1.9-1.6-1.5-2.8c0.3-1.2,1.6-1.9,2.8-1.6
		C14.1,50.9,14.8,52.1,14.4,53.3z"/>
	<path id="XMLID_38_" class="st2" d="M46.3,144.6c-0.1,0.9-0.9,1.6-1.8,1.5c-0.9-0.1-1.5-0.9-1.4-1.9c0.1-0.9,0.9-1.6,1.8-1.5
		C45.7,142.8,46.4,143.7,46.3,144.6z"/>
	<path id="XMLID_37_" class="st2" d="M42.4,148.3c-0.1,0.7-0.7,1.2-1.3,1.1c-0.7-0.1-1.1-0.7-1.1-1.4c0.1-0.7,0.7-1.2,1.3-1.1
		C42,147,42.5,147.6,42.4,148.3z"/>
	<path id="XMLID_36_" class="st2" d="M38.8,151c0,0.5-0.5,0.9-1,0.8s-0.8-0.5-0.8-1c0.1-0.5,0.5-0.9,1-0.8
		C38.5,150,38.9,150.5,38.8,151z"/>
	<path id="XMLID_35_" class="st2" d="M49.1,63.6c-0.2,2.3-2.2,3.9-4.3,3.7c-2.2-0.2-3.7-2.2-3.5-4.5c0.2-2.3,2.2-3.9,4.3-3.7
		C47.8,59.3,49.4,61.3,49.1,63.6z"/>
	<path id="XMLID_34_" class="st2" d="M34.3,54.7c-0.2,1.7-1.6,2.9-3.1,2.7c-1.6-0.2-2.7-1.6-2.5-3.3c0.2-1.7,1.6-2.9,3.1-2.7
		C33.3,51.6,34.5,53.1,34.3,54.7z"/>
	<path id="XMLID_33_" class="st2" d="M20.9,52.6c-0.1,1.3-1.3,2.2-2.5,2c-1.3-0.1-2.2-1.3-2.1-2.5c0.1-1.3,1.3-2.2,2.5-2
		C20.1,50.2,21.1,51.4,20.9,52.6z"/>
	<path id="XMLID_32_" class="st2" d="M8,54.8c-0.3,1.2-1.6,1.9-2.8,1.6c-1.2-0.3-1.9-1.6-1.5-2.8C4,52.4,5.3,51.7,6.5,52
		S8.4,53.6,8,54.8z"/>
	<path id="XMLID_31_" class="st4" d="M52.2,87.4c0,1.8-1.3,3.2-3,3.2s-3-1.4-3-3.2s1.3-3.2,3-3.2C50.9,84.2,52.2,85.7,52.2,87.4z"/>
	<path id="XMLID_30_" class="st4" d="M52.9,94.9c0,1.7-1.3,3-2.8,3c-1.6,0-2.8-1.4-2.8-3c0-1.7,1.3-3,2.8-3
		C51.7,91.9,52.9,93.2,52.9,94.9z"/>
	<path id="XMLID_29_" class="st4" d="M37.3,66.1c0,1.4-1.1,2.5-2.4,2.5c-1.4,0-2.4-1.1-2.4-2.5s1.1-2.5,2.4-2.5S37.3,64.7,37.3,66.1
		z"/>
	<path id="XMLID_28_" class="st4" d="M50.4,113.1c0,1.1-0.8,1.9-1.9,1.9s-1.9-0.9-1.9-1.9c0-1.1,0.8-1.9,1.9-1.9
		S50.4,112.1,50.4,113.1z"/>
	<path id="XMLID_27_" class="st4" d="M48.8,117.7c0,1-0.8,1.7-1.7,1.7c-0.9,0-1.7-0.8-1.7-1.7c0-1,0.8-1.7,1.7-1.7
		C48.1,116,48.8,116.8,48.8,117.7z"/>
	<path id="XMLID_26_" class="st4" d="M46.7,122.3c0,0.7-0.6,1.3-1.3,1.3c-0.7,0-1.3-0.6-1.3-1.3c0-0.7,0.6-1.3,1.3-1.3
		S46.7,121.6,46.7,122.3z"/>
	<path id="XMLID_25_" class="st4" d="M42.7,71.4c0,1.8-1.4,3.2-3,3.2c-1.7,0-3-1.4-3-3.2c0-1.8,1.4-3.2,3-3.2
		C41.4,68.2,42.7,69.6,42.7,71.4z"/>
	<path id="XMLID_24_" class="st4" d="M49.1,78.6c0,2.3-1.8,4.1-3.9,4.1c-2.2,0-3.9-1.8-3.9-4.1s1.8-4.1,3.9-4.1
		C47.4,74.5,49.1,76.3,49.1,78.6z"/>
	<path id="XMLID_23_" class="st4" d="M31.6,62.8c0,1.1-0.8,1.9-1.9,1.9c-1,0-1.9-0.9-1.9-1.9c0-1.1,0.8-1.9,1.9-1.9
		S31.6,61.7,31.6,62.8z"/>
	<path id="XMLID_22_" class="st4" d="M26.9,61c0,1-0.8,1.7-1.7,1.7s-1.7-0.8-1.7-1.7c0-1,0.8-1.7,1.7-1.7C26.1,59.2,26.9,60,26.9,61
		z"/>
	<path id="XMLID_21_" class="st4" d="M22.3,60.1c0,0.7-0.6,1.3-1.3,1.3s-1.3-0.6-1.3-1.3c0-0.7,0.6-1.3,1.3-1.3S22.3,59.4,22.3,60.1
		z"/>
	<path id="XMLID_20_" class="st4" d="M17.6,59.9c0,0.6-0.5,1.1-1.1,1.1s-1.1-0.5-1.1-1.1c0-0.6,0.5-1.1,1.1-1.1
		C17.2,58.8,17.6,59.3,17.6,59.9z"/>
	<path id="XMLID_19_" class="st2" d="M-2.8,59c-0.1,0.9-0.9,1.6-1.8,1.5s-1.5-0.9-1.4-1.9c0.1-0.9,0.9-1.6,1.8-1.5
		C-3.4,57.3-2.7,58.1-2.8,59z"/>
	<path id="XMLID_18_" class="st2" d="M-7.3,62c-0.1,0.7-0.7,1.2-1.3,1.1c-0.7-0.1-1.1-0.7-1.1-1.4c0.1-0.7,0.7-1.2,1.3-1.1
		C-7.7,60.7-7.2,61.3-7.3,62z"/>
	<path id="XMLID_17_" class="st2" d="M-10.9,66c-0.1,0.5-0.5,0.9-1,0.8c-0.5-0.1-0.8-0.5-0.8-1c0.1-0.5,0.5-0.9,1-0.8
		C-11.2,65-10.9,65.5-10.9,66z"/>
	<path id="XMLID_16_" class="st4" d="M44.3,125.4c0,0.4-0.4,0.8-0.8,0.8s-0.8-0.4-0.8-0.8s0.4-0.8,0.8-0.8
		C44,124.6,44.3,125,44.3,125.4z"/>
	<path id="XMLID_15_" class="st4" d="M13.6,60.9c0,0.4-0.3,0.8-0.8,0.8c-0.4,0-0.8-0.4-0.8-0.8c0-0.4,0.3-0.8,0.8-0.8
		S13.6,60.5,13.6,60.9z"/>
	<path id="XMLID_14_" class="st3" d="M19,118.3c-0.5-0.2-0.8-0.7-0.7-1.2s0.7-0.8,1.2-0.6c0.5,0.2,0.8,0.7,0.7,1.2
		C20.1,118.2,19.6,118.5,19,118.3z"/>
	<path id="XMLID_13_" class="st3" d="M22.2,117.3c-0.4-0.1-0.7-0.5-0.6-0.9c0.1-0.4,0.5-0.6,1-0.5c0.4,0.1,0.7,0.5,0.6,0.9
		C23,117.2,22.6,117.4,22.2,117.3z"/>
	<path id="XMLID_12_" class="st3" d="M42.9,97.7c0.2,1.1-0.5,2.2-1.6,2.5c-1.1,0.2-2.2-0.5-2.4-1.6c-0.2-1.1,0.5-2.2,1.6-2.5
		C41.5,95.9,42.6,96.6,42.9,97.7z"/>
	<path id="XMLID_11_" class="st3" d="M42.7,91.6c0,1.5-1.1,2.6-2.5,2.6s-2.5-1.2-2.5-2.7s1.2-2.6,2.5-2.6
		C41.6,88.9,42.7,90.1,42.7,91.6z"/>
	<path id="XMLID_10_" class="st3" d="M31.8,73.9c0,1.2-1,2.1-2.2,2.1s-2.1-1-2.1-2.2c0-1.2,1-2.1,2.2-2.1S31.8,72.7,31.8,73.9z"/>
	<path id="XMLID_9_" class="st3" d="M42.5,103.3c0.2,1-0.4,1.9-1.4,2.1c-1,0.2-1.9-0.4-2.1-1.4c-0.2-1,0.4-1.9,1.4-2.1
		C41.4,101.8,42.3,102.4,42.5,103.3z"/>
	<ellipse id="XMLID_7_" class="st3" cx="39.8" cy="108.8" rx="1.3" ry="1.3"/>
	<path id="XMLID_6_" class="st3" d="M39.3,112.2c0.1,0.5-0.2,1-0.7,1.1s-1-0.2-1.1-0.7s0.2-1,0.7-1.1
		C38.7,111.3,39.2,111.7,39.3,112.2z"/>
	<path id="XMLID_5_" class="st3" d="M36.5,78.8c0,1.4-1.2,2.5-2.6,2.5c-1.4,0-2.6-1.2-2.5-2.6c0-1.4,1.2-2.5,2.6-2.5
		C35.3,76.3,36.5,77.5,36.5,78.8z"/>
	<path id="XMLID_4_" class="st3" d="M40.6,84.5c0,1.6-1.3,2.9-2.8,2.9s-2.8-1.3-2.8-3c0-1.6,1.3-2.9,2.8-2.9
		C39.4,81.5,40.7,82.8,40.6,84.5z"/>
	<path id="XMLID_3_" class="st3" d="M26.4,71.5c0,0.9-0.7,1.5-1.6,1.5c-0.8,0-1.5-0.7-1.5-1.6s0.7-1.5,1.6-1.5
		C25.7,69.9,26.4,70.6,26.4,71.5z"/>
	<path id="XMLID_2_" class="st3" d="M21.6,70.1c0,0.7-0.6,1.3-1.3,1.3S19,70.8,19,70.1c0-0.7,0.6-1.3,1.3-1.3S21.6,69.3,21.6,70.1z"
		/>
	<path id="XMLID_1_" class="st3" d="M16.9,69.8c0,0.5-0.4,1-0.9,0.9c-0.5,0-0.9-0.4-0.9-1c0-0.5,0.4-1,0.9-0.9
		C16.6,68.8,17,69.3,16.9,69.8z"/>
	<g id="XMLID_109_">
		<path id="XMLID_110_" class="st2" d="M115.3,125.6l-0.8,2.5h-1l2.7-7.8h1.2l2.7,7.8H119l-0.8-2.5H115.3z M117.9,124.8l-0.8-2.3
			c-0.2-0.5-0.3-1-0.4-1.4l0,0c-0.1,0.5-0.2,0.9-0.4,1.4l-0.8,2.3H117.9z"/>
		<path id="XMLID_113_" class="st2" d="M127.1,122.5c0,0.4,0,0.9,0,1.5v3.3c0,1.3-0.3,2.1-0.8,2.6s-1.3,0.7-2,0.7s-1.4-0.2-1.9-0.5
			l0.3-0.8c0.4,0.2,1,0.4,1.6,0.4c1,0,1.8-0.5,1.8-2v-0.6l0,0c-0.3,0.5-0.9,0.9-1.8,0.9c-1.4,0-2.4-1.2-2.4-2.7c0-1.9,1.2-3,2.5-3
			c1,0,1.5,0.5,1.8,1l0,0v-0.8H127.1z M126,124.7c0-0.2,0-0.3-0.1-0.5c-0.2-0.6-0.7-1.1-1.4-1.1c-1,0-1.7,0.8-1.7,2.1
			c0,1.1,0.6,2,1.7,2c0.6,0,1.2-0.4,1.4-1c0.1-0.2,0.1-0.4,0.1-0.5V124.7z"/>
		<path id="XMLID_116_" class="st2" d="M130.4,125.5c0,1.4,0.9,2,1.9,2c0.7,0,1.2-0.1,1.6-0.3l0.2,0.7c-0.4,0.2-1,0.3-1.9,0.3
			c-1.7,0-2.8-1.1-2.8-2.8c0-1.7,1-3,2.6-3c1.8,0,2.3,1.6,2.3,2.6c0,0.2,0,0.4,0,0.5C134.3,125.5,130.4,125.5,130.4,125.5z
			 M133.4,124.7c0-0.7-0.3-1.7-1.4-1.7c-1,0-1.5,1-1.6,1.7H133.4z"/>
		<path id="XMLID_119_" class="st2" d="M136.7,124c0-0.6,0-1.1,0-1.5h0.9l0.1,0.9l0,0c0.3-0.5,0.9-1.1,1.9-1.1c0.8,0,2,0.5,2,2.4
			v3.4h-1v-3.2c0-0.9-0.3-1.7-1.3-1.7c-0.7,0-1.2,0.5-1.4,1c0,0.1-0.1,0.3-0.1,0.5v3.4h-1L136.7,124L136.7,124z"/>
		<path id="XMLID_121_" class="st2" d="M148.3,127.9c-0.3,0.1-0.9,0.3-1.6,0.3c-1.7,0-2.8-1.2-2.8-2.9c0-1.7,1.2-3,3-3
			c0.6,0,1.1,0.2,1.4,0.3l-0.2,0.8c-0.2-0.1-0.6-0.3-1.2-0.3c-1.3,0-2,1-2,2.1c0,1.3,0.8,2.1,2,2.1c0.6,0,1-0.2,1.3-0.3L148.3,127.9
			z"/>
		<path id="XMLID_123_" class="st2" d="M151.7,120.9c0,0.3-0.2,0.6-0.7,0.6c-0.4,0-0.6-0.3-0.6-0.6c0-0.4,0.3-0.6,0.6-0.6
			C151.5,120.3,151.7,120.5,151.7,120.9z M150.6,128.1v-5.6h1v5.6H150.6z"/>
		<path id="XMLID_126_" class="st2" d="M157.5,128.1l-0.1-0.7l0,0c-0.3,0.4-0.9,0.8-1.7,0.8c-1.1,0-1.7-0.8-1.7-1.6
			c0-1.4,1.2-2.1,3.4-2.1v-0.1c0-0.5-0.1-1.3-1.3-1.3c-0.5,0-1.1,0.2-1.5,0.4l-0.2-0.7c0.5-0.3,1.1-0.5,1.8-0.5
			c1.7,0,2.1,1.2,2.1,2.3v2.1c0,0.5,0,1,0.1,1.3L157.5,128.1L157.5,128.1z M157.4,125.2c-1.1,0-2.4,0.2-2.4,1.3c0,0.7,0.4,1,1,1
			c0.7,0,1.2-0.5,1.4-0.9c0-0.1,0.1-0.2,0.1-0.3v-1.1H157.4z"/>
		<path id="XMLID_129_" class="st2" d="M169.5,119.8v6.8c0,0.5,0,1.1,0,1.5h-0.9v-1l0,0c-0.3,0.6-1,1.1-1.9,1.1
			c-1.4,0-2.4-1.2-2.4-2.9c0-1.9,1.2-3,2.5-3c0.9,0,1.4,0.4,1.7,0.9l0,0v-3.4H169.5z M168.5,124.8c0-0.1,0-0.3,0-0.4
			c-0.2-0.7-0.7-1.2-1.5-1.2c-1.1,0-1.7,0.9-1.7,2.2c0,1.1,0.6,2.1,1.7,2.1c0.7,0,1.3-0.5,1.5-1.2c0-0.1,0-0.3,0-0.4V124.8z"/>
		<path id="XMLID_132_" class="st2" d="M172.8,125.5c0,1.4,0.9,2,1.9,2c0.7,0,1.2-0.1,1.6-0.3l0.2,0.7c-0.4,0.2-1,0.3-1.9,0.3
			c-1.7,0-2.8-1.1-2.8-2.8c0-1.7,1-3,2.6-3c1.8,0,2.3,1.6,2.3,2.6c0,0.2,0,0.4,0,0.5C176.7,125.5,172.8,125.5,172.8,125.5z
			 M175.8,124.7c0-0.7-0.3-1.7-1.4-1.7c-1,0-1.5,1-1.6,1.7H175.8z"/>
		<path id="XMLID_135_" class="st2" d="M188.7,127.7c-0.5,0.2-1.3,0.4-2.4,0.4c-1.2,0-2.2-0.3-2.9-1s-1.1-1.7-1.1-2.9
			c0-2.3,1.6-4,4.2-4c0.9,0,1.6,0.2,2,0.4l-0.2,0.8c-0.4-0.2-0.9-0.3-1.7-0.3c-1.9,0-3.1,1.2-3.1,3.1c0,2,1.2,3.2,3,3.2
			c0.7,0,1.1-0.1,1.3-0.2v-2.3h-1.6V124h2.6v3.7H188.7z"/>
		<path id="XMLID_137_" class="st2" d="M196.4,125.2c0,2.1-1.4,3-2.8,3c-1.5,0-2.7-1.1-2.7-2.9c0-1.9,1.2-3,2.8-3
			C195.3,122.3,196.4,123.5,196.4,125.2z M192,125.3c0,1.2,0.7,2.2,1.7,2.2s1.7-0.9,1.7-2.2c0-1-0.5-2.2-1.7-2.2
			C192.5,123.1,192,124.2,192,125.3z"/>
		<path id="XMLID_140_" class="st2" d="M198.8,128.1c0-0.4,0-1,0-1.5v-6.8h1v3.5l0,0c0.4-0.6,1-1,1.9-1c1.4,0,2.4,1.2,2.4,2.9
			c0,2-1.3,3-2.5,3c-0.8,0-1.5-0.3-1.9-1.1l0,0v0.9h-0.9V128.1z M199.8,125.8c0,0.1,0,0.3,0,0.4c0.2,0.7,0.8,1.2,1.5,1.2
			c1.1,0,1.7-0.9,1.7-2.2c0-1.1-0.6-2.1-1.7-2.1c-0.7,0-1.3,0.5-1.6,1.3c0,0.1-0.1,0.3-0.1,0.4v1H199.8z"/>
		<path id="XMLID_143_" class="st2" d="M207.6,120.9c0,0.3-0.2,0.6-0.7,0.6c-0.4,0-0.6-0.3-0.6-0.6c0-0.4,0.3-0.6,0.6-0.6
			C207.4,120.3,207.6,120.5,207.6,120.9z M206.5,128.1v-5.6h1v5.6H206.5z"/>
		<path id="XMLID_146_" class="st2" d="M210.9,125.5c0,1.4,0.9,2,1.9,2c0.7,0,1.2-0.1,1.6-0.3l0.2,0.7c-0.4,0.2-1,0.3-1.9,0.3
			c-1.7,0-2.8-1.1-2.8-2.8c0-1.7,1-3,2.6-3c1.8,0,2.3,1.6,2.3,2.6c0,0.2,0,0.4,0,0.5C214.8,125.5,210.9,125.5,210.9,125.5z
			 M213.9,124.7c0-0.7-0.3-1.7-1.4-1.7c-1,0-1.5,1-1.6,1.7H213.9z"/>
		<path id="XMLID_149_" class="st2" d="M217.2,124.2c0-0.7,0-1.2,0-1.8h0.9v1.1l0,0c0.3-0.8,0.9-1.2,1.6-1.2c0.1,0,0.2,0,0.3,0v1
			c-0.1,0-0.2,0-0.3,0c-0.7,0-1.2,0.5-1.4,1.3c0,0.1,0,0.3,0,0.5v3h-1v-3.9H217.2z"/>
		<path id="XMLID_151_" class="st2" d="M222.1,124c0-0.6,0-1.1,0-1.5h0.9l0.1,0.9l0,0c0.3-0.5,0.9-1.1,1.9-1.1c0.8,0,2,0.5,2,2.4
			v3.4h-1v-3.2c0-0.9-0.3-1.7-1.3-1.7c-0.7,0-1.2,0.5-1.4,1c0,0.1-0.1,0.3-0.1,0.5v3.4h-1L222.1,124L222.1,124z"/>
		<path id="XMLID_153_" class="st2" d="M234.7,125.2c0,2.1-1.4,3-2.8,3c-1.5,0-2.7-1.1-2.7-2.9c0-1.9,1.2-3,2.8-3
			C233.7,122.3,234.7,123.5,234.7,125.2z M230.3,125.3c0,1.2,0.7,2.2,1.7,2.2s1.7-0.9,1.7-2.2c0-1-0.5-2.2-1.7-2.2
			C230.8,123.1,230.3,124.2,230.3,125.3z"/>
		<path id="XMLID_156_" class="st2" d="M244.8,124.4h-3v2.8h3.4v0.8h-4.4v-7.8h4.2v0.8h-3.2v2.5h3V124.4z"/>
		<path id="XMLID_158_" class="st2" d="M247.5,119.8h1v8.2h-1V119.8z"/>
		<path id="XMLID_160_" class="st2" d="M251.9,125.5c0,1.4,0.9,2,1.9,2c0.7,0,1.2-0.1,1.6-0.3l0.2,0.7c-0.4,0.2-1,0.3-1.9,0.3
			c-1.7,0-2.8-1.1-2.8-2.8c0-1.7,1-3,2.6-3c1.8,0,2.3,1.6,2.3,2.6c0,0.2,0,0.4,0,0.5C255.8,125.5,251.9,125.5,251.9,125.5z
			 M254.9,124.7c0-0.7-0.3-1.7-1.4-1.7c-1,0-1.5,1-1.6,1.7H254.9z"/>
		<path id="XMLID_163_" class="st2" d="M262.2,127.9c-0.3,0.1-0.9,0.3-1.6,0.3c-1.7,0-2.8-1.2-2.8-2.9c0-1.7,1.2-3,3-3
			c0.6,0,1.1,0.2,1.4,0.3l-0.2,0.8c-0.2-0.1-0.6-0.3-1.2-0.3c-1.3,0-2,1-2,2.1c0,1.3,0.8,2.1,2,2.1c0.6,0,1-0.2,1.3-0.3L262.2,127.9
			z"/>
		<path id="XMLID_165_" class="st2" d="M265.8,120.9v1.6h1.5v0.8h-1.5v3c0,0.7,0.2,1.1,0.8,1.1c0.3,0,0.5,0,0.6-0.1v0.8
			c-0.2,0.1-0.5,0.1-0.9,0.1c-0.5,0-0.9-0.2-1.1-0.4c-0.3-0.3-0.4-0.8-0.4-1.5v-3.1h-0.9v-0.8h0.9v-1.3L265.8,120.9z"/>
		<path id="XMLID_167_" class="st2" d="M269.5,124.2c0-0.7,0-1.2,0-1.8h0.9v1.1l0,0c0.3-0.8,0.9-1.2,1.6-1.2c0.1,0,0.2,0,0.3,0v1
			c-0.1,0-0.2,0-0.3,0c-0.7,0-1.2,0.5-1.4,1.3c0,0.1,0,0.3,0,0.5v3h-1v-3.9H269.5z"/>
		<path id="XMLID_169_" class="st2" d="M279.4,125.2c0,2.1-1.4,3-2.8,3c-1.5,0-2.7-1.1-2.7-2.9c0-1.9,1.2-3,2.8-3
			C278.4,122.3,279.4,123.5,279.4,125.2z M275,125.3c0,1.2,0.7,2.2,1.7,2.2s1.7-0.9,1.7-2.2c0-1-0.5-2.2-1.7-2.2
			S275,124.2,275,125.3z M278.2,120l-1.4,1.7h-0.7l1-1.7H278.2z"/>
		<path id="XMLID_173_" class="st2" d="M281.8,124c0-0.6,0-1.1,0-1.5h0.9l0.1,0.9l0,0c0.3-0.5,0.9-1.1,1.9-1.1c0.8,0,2,0.5,2,2.4
			v3.4h-1v-3.2c0-0.9-0.3-1.7-1.3-1.7c-0.7,0-1.2,0.5-1.4,1c0,0.1-0.1,0.3-0.1,0.5v3.4h-1V124H281.8z"/>
		<path id="XMLID_175_" class="st2" d="M290.5,120.9c0,0.3-0.2,0.6-0.7,0.6c-0.4,0-0.6-0.3-0.6-0.6c0-0.4,0.3-0.6,0.6-0.6
			C290.3,120.3,290.5,120.5,290.5,120.9z M289.4,128.1v-5.6h1v5.6H289.4z"/>
		<path id="XMLID_178_" class="st2" d="M297.2,127.9c-0.3,0.1-0.9,0.3-1.6,0.3c-1.7,0-2.8-1.2-2.8-2.9c0-1.7,1.2-3,3-3
			c0.6,0,1.1,0.2,1.4,0.3l-0.2,0.8c-0.2-0.1-0.6-0.3-1.2-0.3c-1.3,0-2,1-2,2.1c0,1.3,0.8,2.1,2,2.1c0.6,0,1-0.2,1.3-0.3L297.2,127.9
			z"/>
		<path id="XMLID_180_" class="st2" d="M304.6,125.2c0,2.1-1.4,3-2.8,3c-1.5,0-2.7-1.1-2.7-2.9c0-1.9,1.2-3,2.8-3
			C303.5,122.3,304.6,123.5,304.6,125.2z M300.1,125.3c0,1.2,0.7,2.2,1.7,2.2s1.7-0.9,1.7-2.2c0-1-0.5-2.2-1.7-2.2
			C300.6,123.1,300.1,124.2,300.1,125.3z"/>
		<path id="XMLID_183_" class="st2" d="M310.9,122.5l1.2,3.3c0.1,0.4,0.3,0.8,0.4,1.2l0,0c0.1-0.3,0.2-0.8,0.4-1.2l1.1-3.3h1.1
			l-1.5,4c-0.7,1.9-1.2,2.9-1.9,3.5c-0.5,0.4-1,0.6-1.3,0.7l-0.3-0.9c0.3-0.1,0.6-0.2,0.9-0.5c0.3-0.2,0.6-0.6,0.9-1.1
			c0-0.1,0.1-0.2,0.1-0.2c0-0.1,0-0.1-0.1-0.3l-2.1-5.2H310.9z"/>
		<path id="XMLID_185_" class="st2" d="M63.4,136.6H61v-0.9h5.8v0.9h-2.4v7h-1V136.6z"/>
		<path id="XMLID_187_" class="st2" d="M69.2,141c0,1.4,0.9,2,1.9,2c0.7,0,1.2-0.1,1.6-0.3l0.2,0.7c-0.4,0.2-1,0.3-1.9,0.3
			c-1.7,0-2.8-1.1-2.8-2.8c0-1.7,1-3,2.6-3c1.8,0,2.3,1.6,2.3,2.6c0,0.2,0,0.4,0,0.5C73.1,141,69.2,141,69.2,141z M72.2,140.2
			c0-0.7-0.3-1.7-1.4-1.7c-1,0-1.5,1-1.6,1.7H72.2z"/>
		<path id="XMLID_190_" class="st2" d="M79.5,143.4c-0.3,0.1-0.9,0.3-1.6,0.3c-1.7,0-2.8-1.2-2.8-2.9s1.2-3,3-3
			c0.6,0,1.1,0.2,1.4,0.3l-0.2,0.8c-0.2-0.1-0.6-0.3-1.2-0.3c-1.3,0-2,1-2,2.1c0,1.3,0.8,2.1,2,2.1c0.6,0,1-0.2,1.3-0.3L79.5,143.4z
			"/>
		<path id="XMLID_192_" class="st2" d="M81.7,139.5c0-0.6,0-1.1,0-1.5h0.9l0.1,0.9l0,0c0.3-0.5,0.9-1.1,1.9-1.1c0.8,0,2,0.5,2,2.4
			v3.4h-1v-3.2c0-0.9-0.3-1.7-1.3-1.7c-0.7,0-1.2,0.5-1.4,1c0,0.1-0.1,0.3-0.1,0.5v3.4h-1L81.7,139.5L81.7,139.5z"/>
		<path id="XMLID_194_" class="st2" d="M94.2,140.7c0,2.1-1.4,3-2.8,3c-1.5,0-2.7-1.1-2.7-2.9c0-1.9,1.2-3,2.8-3
			C93.1,137.8,94.2,139,94.2,140.7z M89.7,140.8c0,1.2,0.7,2.2,1.7,2.2s1.7-0.9,1.7-2.2c0-1-0.5-2.2-1.7-2.2S89.7,139.7,89.7,140.8z
			"/>
		<path id="XMLID_197_" class="st2" d="M96.5,135.3h1v8.2h-1V135.3z"/>
		<path id="XMLID_199_" class="st2" d="M105.3,140.7c0,2.1-1.4,3-2.8,3c-1.5,0-2.7-1.1-2.7-2.9c0-1.9,1.2-3,2.8-3
			C104.2,137.8,105.3,139,105.3,140.7z M100.8,140.8c0,1.2,0.7,2.2,1.7,2.2s1.7-0.9,1.7-2.2c0-1-0.5-2.2-1.7-2.2
			S100.8,139.7,100.8,140.8z"/>
		<path id="XMLID_202_" class="st2" d="M112.4,138c0,0.4,0,0.9,0,1.5v3.3c0,1.3-0.3,2.1-0.8,2.6s-1.3,0.7-2,0.7s-1.4-0.2-1.9-0.5
			l0.3-0.8c0.4,0.2,1,0.4,1.6,0.4c1,0,1.8-0.5,1.8-2v-0.6l0,0c-0.3,0.5-0.9,0.9-1.8,0.9c-1.4,0-2.4-1.2-2.4-2.7c0-1.9,1.2-3,2.5-3
			c1,0,1.5,0.5,1.8,1l0,0V138H112.4z M111.3,140.2c0-0.2,0-0.3-0.1-0.5c-0.2-0.6-0.7-1.1-1.4-1.1c-1,0-1.7,0.8-1.7,2.1
			c0,1.1,0.6,2,1.7,2c0.6,0,1.2-0.4,1.4-1c0.1-0.2,0.1-0.4,0.1-0.5V140.2z"/>
		<path id="XMLID_205_" class="st2" d="M117.1,135.5l-1.4,1.7H115l1-1.7H117.1z M115,143.6V138h1v5.6H115z"/>
		<path id="XMLID_208_" class="st2" d="M121.8,143.6l-0.1-0.7l0,0c-0.3,0.4-0.9,0.8-1.7,0.8c-1.1,0-1.7-0.8-1.7-1.6
			c0-1.4,1.2-2.1,3.4-2.1v-0.1c0-0.5-0.1-1.3-1.3-1.3c-0.5,0-1.1,0.2-1.5,0.4l-0.2-0.7c0.5-0.3,1.1-0.5,1.8-0.5
			c1.7,0,2.1,1.2,2.1,2.3v2.1c0,0.5,0,1,0.1,1.3L121.8,143.6L121.8,143.6z M121.7,140.7c-1.1,0-2.4,0.2-2.4,1.3c0,0.7,0.4,1,1,1
			c0.7,0,1.2-0.5,1.4-0.9c0-0.1,0.1-0.2,0.1-0.3v-1.1H121.7z"/>
		<path id="XMLID_211_" class="st2" d="M125.2,142.5c0.3,0.2,0.8,0.4,1.3,0.4c0.7,0,1.1-0.4,1.1-0.8c0-0.5-0.3-0.8-1-1
			c-1-0.4-1.5-0.9-1.5-1.6c0-0.9,0.7-1.6,1.9-1.6c0.6,0,1.1,0.2,1.4,0.3l-0.3,0.7c-0.2-0.1-0.6-0.3-1.2-0.3c-0.6,0-0.9,0.3-0.9,0.8
			s0.3,0.7,1.1,1c1,0.4,1.5,0.9,1.5,1.7c0,1-0.8,1.7-2.1,1.7c-0.6,0-1.2-0.2-1.6-0.4L125.2,142.5z"/>
		<path id="XMLID_213_" class="st2" d="M139.2,135.3v6.8c0,0.5,0,1.1,0,1.5h-0.9v-1l0,0c-0.3,0.6-1,1.1-1.9,1.1
			c-1.4,0-2.4-1.2-2.4-2.9c0-1.9,1.2-3,2.5-3c0.9,0,1.4,0.4,1.7,0.9l0,0v-3.4H139.2z M138.2,140.3c0-0.1,0-0.3,0-0.4
			c-0.2-0.7-0.7-1.2-1.5-1.2c-1.1,0-1.7,0.9-1.7,2.2c0,1.1,0.6,2.1,1.7,2.1c0.7,0,1.3-0.5,1.5-1.2c0-0.1,0-0.3,0-0.4V140.3z"/>
		<path id="XMLID_216_" class="st2" d="M142.5,141c0,1.4,0.9,2,1.9,2c0.7,0,1.2-0.1,1.6-0.3l0.2,0.7c-0.4,0.2-1,0.3-1.9,0.3
			c-1.7,0-2.8-1.1-2.8-2.8c0-1.7,1-3,2.6-3c1.8,0,2.3,1.6,2.3,2.6c0,0.2,0,0.4,0,0.5C146.4,141,142.5,141,142.5,141z M145.5,140.2
			c0-0.7-0.3-1.7-1.4-1.7c-1,0-1.5,1-1.6,1.7H145.5z"/>
		<path id="XMLID_219_" class="st2" d="M153.2,135.8v7.8h-1v-7.8H153.2z"/>
		<path id="XMLID_221_" class="st2" d="M155.9,139.5c0-0.6,0-1.1,0-1.5h0.9l0.1,0.9l0,0c0.3-0.5,0.9-1.1,1.9-1.1c0.8,0,2,0.5,2,2.4
			v3.4h-1v-3.2c0-0.9-0.3-1.7-1.3-1.7c-0.7,0-1.2,0.5-1.4,1c0,0.1-0.1,0.3-0.1,0.5v3.4h-1L155.9,139.5L155.9,139.5z"/>
		<path id="XMLID_223_" class="st2" d="M163.4,143.6v-4.8h-0.8V138h0.8v-0.3c0-0.8,0.2-1.5,0.7-2c0.4-0.4,0.9-0.5,1.4-0.5
			c0.4,0,0.7,0.1,0.9,0.2l-0.1,0.8c-0.2-0.1-0.4-0.1-0.7-0.1c-0.9,0-1.1,0.8-1.1,1.6v0.3h1.4v0.8h-1.4v4.8
			C164.5,143.6,163.4,143.6,163.4,143.6z"/>
		<path id="XMLID_225_" class="st2" d="M172.8,140.7c0,2.1-1.4,3-2.8,3c-1.5,0-2.7-1.1-2.7-2.9c0-1.9,1.2-3,2.8-3
			C171.7,137.8,172.8,139,172.8,140.7z M168.4,140.8c0,1.2,0.7,2.2,1.7,2.2s1.7-0.9,1.7-2.2c0-1-0.5-2.2-1.7-2.2
			S168.4,139.7,168.4,140.8z"/>
		<path id="XMLID_228_" class="st2" d="M175.1,139.7c0-0.7,0-1.2,0-1.8h0.9v1.1l0,0c0.3-0.8,0.9-1.2,1.6-1.2c0.1,0,0.2,0,0.3,0v1
			c-0.1,0-0.2,0-0.3,0c-0.7,0-1.2,0.5-1.4,1.3c0,0.1,0,0.3,0,0.5v3h-1v-3.9H175.1z"/>
		<path id="XMLID_230_" class="st2" d="M179.9,139.5c0-0.6,0-1.1,0-1.5h0.9v0.9l0,0c0.3-0.5,0.8-1,1.8-1c0.8,0,1.3,0.5,1.6,1.1l0,0
			c0.2-0.3,0.4-0.6,0.6-0.7c0.3-0.3,0.7-0.4,1.2-0.4c0.7,0,1.8,0.5,1.8,2.4v3.3h-1v-3.2c0-1.1-0.4-1.7-1.2-1.7c-0.6,0-1,0.4-1.2,0.9
			c0,0.1-0.1,0.3-0.1,0.5v3.5h-1v-3.4c0-0.9-0.4-1.5-1.2-1.5c-0.6,0-1.1,0.5-1.3,1c-0.1,0.2-0.1,0.3-0.1,0.5v3.4h-1v-4.1H179.9z"/>
		<path id="XMLID_232_" class="st2" d="M193.7,143.6l-0.1-0.7l0,0c-0.3,0.4-0.9,0.8-1.7,0.8c-1.1,0-1.7-0.8-1.7-1.6
			c0-1.4,1.2-2.1,3.4-2.1v-0.1c0-0.5-0.1-1.3-1.3-1.3c-0.5,0-1.1,0.2-1.5,0.4l-0.2-0.7c0.5-0.3,1.1-0.5,1.8-0.5
			c1.7,0,2.1,1.2,2.1,2.3v2.1c0,0.5,0,1,0.1,1.3L193.7,143.6L193.7,143.6z M193.5,140.7c-1.1,0-2.4,0.2-2.4,1.3c0,0.7,0.4,1,1,1
			c0.7,0,1.2-0.5,1.4-0.9c0-0.1,0.1-0.2,0.1-0.3v-1.1H193.5z"/>
		<path id="XMLID_235_" class="st2" d="M201.1,143.4c-0.3,0.1-0.9,0.3-1.6,0.3c-1.7,0-2.8-1.2-2.8-2.9s1.2-3,3-3
			c0.6,0,1.1,0.2,1.4,0.3l-0.2,0.8c-0.2-0.1-0.6-0.3-1.2-0.3c-1.3,0-2,1-2,2.1c0,1.3,0.8,2.1,2,2.1c0.6,0,1-0.2,1.3-0.3L201.1,143.4
			z"/>
		<path id="XMLID_237_" class="st2" d="M204.5,136.4c0,0.3-0.2,0.6-0.7,0.6c-0.4,0-0.6-0.3-0.6-0.6c0-0.4,0.3-0.6,0.6-0.6
			C204.2,135.7,204.5,136,204.5,136.4z M203.3,143.6V138h1v5.6H203.3z"/>
		<path id="XMLID_240_" class="st2" d="M212.1,140.7c0,2.1-1.4,3-2.8,3c-1.5,0-2.7-1.1-2.7-2.9c0-1.9,1.2-3,2.8-3
			C211,137.8,212.1,139,212.1,140.7z M207.7,140.8c0,1.2,0.7,2.2,1.7,2.2s1.7-0.9,1.7-2.2c0-1-0.5-2.2-1.7-2.2
			S207.7,139.7,207.7,140.8z M210.9,135.5l-1.4,1.7h-0.7l1-1.7H210.9z"/>
		<path id="XMLID_244_" class="st2" d="M214.4,139.5c0-0.6,0-1.1,0-1.5h0.9l0.1,0.9l0,0c0.3-0.5,0.9-1.1,1.9-1.1c0.8,0,2,0.5,2,2.4
			v3.4h-1v-3.2c0-0.9-0.3-1.7-1.3-1.7c-0.7,0-1.2,0.5-1.4,1c0,0.1-0.1,0.3-0.1,0.5v3.4h-1L214.4,139.5L214.4,139.5z"/>
		<path id="XMLID_246_" class="st2" d="M225.7,138l1.2,3.3c0.1,0.4,0.3,0.8,0.4,1.2l0,0c0.1-0.3,0.2-0.8,0.4-1.2l1.1-3.3h1.1l-1.5,4
			c-0.7,1.9-1.2,2.9-1.9,3.5c-0.5,0.4-1,0.6-1.3,0.7l-0.3-0.9c0.3-0.1,0.6-0.2,0.9-0.5c0.3-0.2,0.6-0.6,0.9-1.1
			c0-0.1,0.1-0.2,0.1-0.2c0-0.1,0-0.1-0.1-0.3l-2.1-5.2H225.7z"/>
		<path id="XMLID_248_" class="st2" d="M240.7,143.3c-0.4,0.2-1.1,0.4-2.1,0.4c-2.2,0-3.9-1.4-3.9-4c0-2.5,1.7-4.1,4.1-4.1
			c1,0,1.6,0.2,1.9,0.3l-0.2,0.8c-0.4-0.2-0.9-0.3-1.6-0.3c-1.8,0-3.1,1.2-3.1,3.2c0,1.9,1.1,3.1,3,3.1c0.6,0,1.2-0.1,1.6-0.3
			L240.7,143.3z"/>
		<path id="XMLID_250_" class="st2" d="M248,140.7c0,2.1-1.4,3-2.8,3c-1.5,0-2.7-1.1-2.7-2.9c0-1.9,1.2-3,2.8-3
			C246.9,137.8,248,139,248,140.7z M243.5,140.8c0,1.2,0.7,2.2,1.7,2.2s1.7-0.9,1.7-2.2c0-1-0.5-2.2-1.7-2.2
			C244.1,138.6,243.5,139.7,243.5,140.8z"/>
		<path id="XMLID_253_" class="st2" d="M250.3,139.5c0-0.6,0-1.1,0-1.5h0.9v0.9l0,0c0.3-0.5,0.8-1,1.8-1c0.8,0,1.3,0.5,1.6,1.1l0,0
			c0.2-0.3,0.4-0.6,0.6-0.7c0.3-0.3,0.7-0.4,1.2-0.4c0.7,0,1.8,0.5,1.8,2.4v3.3h-1v-3.2c0-1.1-0.4-1.7-1.2-1.7c-0.6,0-1,0.4-1.2,0.9
			c0,0.1-0.1,0.3-0.1,0.5v3.5h-1v-3.4c0-0.9-0.4-1.5-1.2-1.5c-0.6,0-1.1,0.5-1.3,1c-0.1,0.2-0.1,0.3-0.1,0.5v3.4h-1v-4.1H250.3z"/>
		<path id="XMLID_255_" class="st2" d="M265.7,142.1c0,0.6,0,1.1,0,1.5h-0.9l-0.1-0.9l0,0c-0.3,0.5-0.9,1-1.9,1
			c-0.9,0-1.9-0.5-1.9-2.5V138h1v3.1c0,1.1,0.3,1.8,1.3,1.8c0.7,0,1.2-0.5,1.3-0.9c0.1-0.2,0.1-0.3,0.1-0.5V138h1v4.1H265.7z"/>
		<path id="XMLID_257_" class="st2" d="M268.3,139.5c0-0.6,0-1.1,0-1.5h0.9l0.1,0.9l0,0c0.3-0.5,0.9-1.1,1.9-1.1c0.8,0,2,0.5,2,2.4
			v3.4h-1v-3.2c0-0.9-0.3-1.7-1.3-1.7c-0.7,0-1.2,0.5-1.4,1c0,0.1-0.1,0.3-0.1,0.5v3.4h-1v-4.1H268.3z"/>
		<path id="XMLID_259_" class="st2" d="M276.9,136.4c0,0.3-0.2,0.6-0.7,0.6c-0.4,0-0.6-0.3-0.6-0.6c0-0.4,0.3-0.6,0.6-0.6
			C276.7,135.7,276.9,136,276.9,136.4z M275.8,143.6V138h1v5.6H275.8z"/>
		<path id="XMLID_262_" class="st2" d="M283.5,143.4c-0.3,0.1-0.9,0.3-1.6,0.3c-1.7,0-2.8-1.2-2.8-2.9s1.2-3,3-3
			c0.6,0,1.1,0.2,1.4,0.3l-0.2,0.8c-0.2-0.1-0.6-0.3-1.2-0.3c-1.3,0-2,1-2,2.1c0,1.3,0.8,2.1,2,2.1c0.6,0,1-0.2,1.3-0.3L283.5,143.4
			z"/>
		<path id="XMLID_264_" class="st2" d="M288.8,143.6l-0.1-0.7l0,0c-0.3,0.4-0.9,0.8-1.7,0.8c-1.1,0-1.7-0.8-1.7-1.6
			c0-1.4,1.2-2.1,3.4-2.1v-0.1c0-0.5-0.1-1.3-1.3-1.3c-0.5,0-1.1,0.2-1.5,0.4l-0.2-0.7c0.5-0.3,1.1-0.5,1.8-0.5
			c1.7,0,2.1,1.2,2.1,2.3v2.1c0,0.5,0,1,0.1,1.3L288.8,143.6L288.8,143.6z M288.6,140.7c-1.1,0-2.4,0.2-2.4,1.3c0,0.7,0.4,1,1,1
			c0.7,0,1.2-0.5,1.4-0.9c0-0.1,0.1-0.2,0.1-0.3v-1.1H288.6z"/>
		<path id="XMLID_267_" class="st2" d="M296.3,143.4c-0.3,0.1-0.9,0.3-1.6,0.3c-1.7,0-2.8-1.2-2.8-2.9s1.2-3,3-3
			c0.6,0,1.1,0.2,1.4,0.3l-0.2,0.8c-0.2-0.1-0.6-0.3-1.2-0.3c-1.3,0-2,1-2,2.1c0,1.3,0.8,2.1,2,2.1c0.6,0,1-0.2,1.3-0.3L296.3,143.4
			z"/>
		<path id="XMLID_269_" class="st2" d="M299.6,136.4c0,0.3-0.2,0.6-0.7,0.6c-0.4,0-0.6-0.3-0.6-0.6c0-0.4,0.3-0.6,0.6-0.6
			C299.3,135.7,299.6,136,299.6,136.4z M298.4,143.6V138h1v5.6H298.4z"/>
		<path id="XMLID_272_" class="st2" d="M307.2,140.7c0,2.1-1.4,3-2.8,3c-1.5,0-2.7-1.1-2.7-2.9c0-1.9,1.2-3,2.8-3
			C306.1,137.8,307.2,139,307.2,140.7z M302.8,140.8c0,1.2,0.7,2.2,1.7,2.2s1.7-0.9,1.7-2.2c0-1-0.5-2.2-1.7-2.2
			S302.8,139.7,302.8,140.8z M306,135.5l-1.4,1.7h-0.7l1-1.7H306z"/>
		<path id="XMLID_276_" class="st2" d="M309.5,139.5c0-0.6,0-1.1,0-1.5h0.9l0.1,0.9l0,0c0.3-0.5,0.9-1.1,1.9-1.1c0.8,0,2,0.5,2,2.4
			v3.4h-1v-3.2c0-0.9-0.3-1.7-1.3-1.7c-0.7,0-1.2,0.5-1.4,1c0,0.1-0.1,0.3-0.1,0.5v3.4h-1v-4.1H309.5z"/>
	</g>
	<g>
		<path class="st2" d="M143.4,99.1L156,66.6h6.8l12.7,32.5h-7l-3.4-8.7h-13.5l-3.4,8.7H143.4z M153.3,86.1h10.1l-5-13L153.3,86.1z"
			/>
		<path class="st2" d="M206,98.4c-2.9,0.7-5,1.2-6.3,1.4c-1.3,0.2-2.7,0.2-4.2,0.2c-6.1,0-10.5-1.6-13.3-4.8
			c-2.8-3.2-4.2-7.3-4.2-12.3c0-3.2,0.6-6.1,1.8-8.7c1.2-2.6,3.1-4.6,5.5-6.1c2.5-1.5,5.8-2.2,10-2.2c3.6,0,7.1,0.4,10.6,1.3v5.3
			c-2.9-1-5.1-1.6-6.4-1.8s-2.5-0.3-3.7-0.3c-3.8,0-6.6,1.2-8.2,3.7c-1.7,2.5-2.5,5.4-2.5,8.9c0,3.8,1,6.9,3,9.1
			c2,2.3,4.8,3.4,8.3,3.4c0.8,0,1.7-0.1,2.7-0.3V84.4h6.8V98.4z"/>
		<path class="st2" d="M213.6,99.1V66.6h20.8v4.5h-14.1v9.1H232v4.5h-11.6v9.9h15.1v4.6H213.6z"/>
		<path class="st2" d="M248.7,99.1v-28h-11.6v-4.5h30.1v4.5h-11.6v28H248.7z"/>
		<path class="st2" d="M271.7,99.1V66.6h6.8v32.5H271.7z"/>
		<path class="st2" d="M312.8,97.9c-1.4,0.6-2.7,1.1-3.7,1.3c-1.1,0.2-2.3,0.4-3.6,0.6c-1.3,0.2-2.7,0.2-4,0.2
			c-5.7,0-9.9-1.6-12.7-4.8s-4.2-7.3-4.2-12.3c0-5,1.4-9.1,4.2-12.3c2.8-3.2,7.2-4.8,13.2-4.8c3.5,0,7,0.4,10.5,1.3v5.3
			c-1.7-0.6-3.1-1-4.1-1.3c-1.1-0.3-2.1-0.5-3-0.6c-1-0.1-1.9-0.2-2.9-0.2c-3.7,0-6.4,1.2-8.1,3.6c-1.7,2.4-2.5,5.4-2.5,8.9
			c0,3.7,1,6.7,2.9,9c1.9,2.3,4.8,3.4,8.5,3.4c3.1,0,6.3-0.8,9.6-2.4V97.9z"/>
	</g>
</g>
</svg>
